<?xml version="1.0" standalone="no"?>
<!DOCTYPE svg PUBLIC "-//W3C//DTD SVG 20010904//EN"
 "http://www.w3.org/TR/2001/REC-SVG-20010904/DTD/svg10.dtd">
<svg version="1.0" xmlns="http://www.w3.org/2000/svg"
 width="256.000000pt" height="256.000000pt" viewBox="0 0 256.000000 256.000000"
 preserveAspectRatio="xMidYMid meet">
<metadata>
Created by potrace 1.11, written by Peter Selinger 2001-2013
</metadata>
<g transform="translate(0.000000,256.000000) scale(0.100000,-0.100000)"
fill="#000000" stroke="none">
<path d="M215 1720 c-98 -20 -154 -60 -191 -136 -25 -51 -26 -61 -21 -162 5
-111 31 -211 83 -314 28 -56 34 -60 99 -70 27 -4 79 -14 115 -23 36 -8 135
-18 220 -22 l155 -6 106 -111 c122 -125 128 -127 148 -26 9 45 9 65 0 81 -11
22 -11 22 57 16 286 -27 378 -30 522 -19 240 19 471 69 634 138 l58 24 45 -35
c67 -50 111 -61 192 -46 91 17 123 35 123 69 0 44 -83 155 -160 213 l-34 26
17 44 c11 29 17 71 16 119 -2 147 -15 158 -127 105 -45 -21 -90 -47 -101 -59
-25 -26 -57 -99 -66 -147 l-7 -36 -38 13 c-22 8 -90 23 -152 34 -144 26 -145
26 -193 65 -169 136 -505 230 -954 265 -155 12 -487 12 -546 0z"/>
</g>
</svg>
