<?xml version="1.0" encoding="UTF-8" standalone="no"?>
<svg
   xmlns:dc="http://purl.org/dc/elements/1.1/"
   xmlns:cc="http://creativecommons.org/ns#"
   xmlns:rdf="http://www.w3.org/1999/02/22-rdf-syntax-ns#"
   xmlns:svg="http://www.w3.org/2000/svg"
   xmlns="http://www.w3.org/2000/svg"
   xmlns:xlink="http://www.w3.org/1999/xlink"
   xmlns:sodipodi="http://sodipodi.sourceforge.net/DTD/sodipodi-0.dtd"
   xmlns:inkscape="http://www.inkscape.org/namespaces/inkscape"
   width="128"
   height="128"
   version="1.1"
   id="svg78"
   sodipodi:docname="whale.svg"
   style="enable-background:new 0 0 128 128;"
   inkscape:version="1.0.1 (3bc2e813f5, 2020-09-07)">
  <metadata
     id="metadata84">
    <rdf:RDF>
      <cc:Work
         rdf:about="">
        <dc:format>image/svg+xml</dc:format>
        <dc:type
           rdf:resource="http://purl.org/dc/dcmitype/StillImage" />
      </cc:Work>
    </rdf:RDF>
  </metadata>
  <defs
     id="defs82" />
  <sodipodi:namedview
     pagecolor="#ffffff"
     bordercolor="#666666"
     borderopacity="1"
     objecttolerance="10"
     gridtolerance="10"
     guidetolerance="10"
     inkscape:pageopacity="0"
     inkscape:pageshadow="2"
     inkscape:window-width="1920"
     inkscape:window-height="1057"
     id="namedview80"
     showgrid="false"
     inkscape:zoom="6.7734375"
     inkscape:cx="63.603232"
     inkscape:cy="72.478506"
     inkscape:window-x="1592"
     inkscape:window-y="-8"
     inkscape:window-maximized="1"
     inkscape:current-layer="svg78" />
  <g
     id="g76"
     transform="translate(0.14763552,-26.574394)">
    <g
       id="g68">
      <defs
         id="defs59">
        <path
           id="SVGID_1_"
           d="M 48.71,118.85 C 28.36,115.81 9.29,104.2 4.44,82.71 -1.33,57.18 18.87,38.87 43.06,37.61 c 5.76,-0.3 11.55,0.33 17.03,2.16 5.42,1.82 10.34,4.76 14.92,8.13 4.39,3.22 8.5,6.8 12.91,9.99 2.18,1.58 4.43,3.06 6.8,4.33 2.76,1.48 5.19,2.49 8.27,1.29 1.01,-0.4 1.94,-0.97 2.74,-1.71 2.29,-2.12 3.17,-5.36 3.02,-8.4 -0.04,-0.82 -0.15,-1.66 -0.32,-2.46 -0.2,-0.87 -0.59,-2.34 -1.25,-2.97 -1.4,-1.36 -3.74,-0.18 -5.25,0.27 -0.97,0.29 -1.94,0.63 -2.95,0.7 C 95.68,49.2 92.12,47.85 89.79,45.5 89,44.72 87.77,43.14 88,41.94 c 0.26,-1.36 2.17,-0.6 3.07,-0.77 0.81,-0.16 1.51,-0.42 2.23,-0.83 1.63,-0.92 3.11,-2.07 4.94,-2.59 2.33,-0.67 4.76,-0.22 6.93,0.76 0.19,0.08 0.38,0.17 0.57,0.27 0.49,0.25 0.98,0.77 1.53,0.88 0.75,0.16 0.73,-0.62 0.77,-1.19 0.05,-0.79 0.04,-1.68 0.25,-2.44 0.48,-1.76 1.73,-3.44 3.38,-4.24 1.9,-0.91 4.1,-0.68 6,-1.62 0.53,-0.27 1.1,-0.58 1.56,-0.97 0.45,-0.38 0.85,-0.86 1.22,-1.31 0.25,-0.31 0.48,-0.75 0.88,-0.89 0.18,-0.07 0.33,-0.07 0.47,0.07 1.12,1.12 1.58,2.91 1.84,4.41 0.26,1.56 0.46,3.21 -0.06,4.73 -0.29,0.82 -0.79,1.67 -1.37,2.31 -0.69,0.75 -1.59,1.56 -2.49,2.05 -1.58,0.86 -3.42,1.25 -4.74,2.55 -1.35,1.33 -0.41,2.91 0.66,4.06 1.48,1.58 2.92,3.14 4.01,5.02 3.33,5.69 4.13,13.96 3.94,18.19 -0.05,1.21 -0.17,2.41 -0.35,3.6 -0.54,3.63 -1.53,7.19 -2.88,10.59 -0.61,1.54 -1.32,3.05 -2.11,4.5 -1.64,3.01 -3.69,5.94 -5.97,8.51 -3,3.39 -6.57,6.87 -10.3,9.45 -4.22,2.92 -9.05,5.57 -13.87,7.37 -6.41,2.38 -13.54,4.08 -20.34,4.83 -6.22,0.67 -12.7,0.56 -19.06,-0.39 z" />
      </defs>
      <use
         style="overflow:visible;fill:#006ca2"
         xlink:href="#SVGID_1_"
         id="use61"
         x="0"
         y="0"
         width="100%"
         height="100%" />
      <clipPath
         id="SVGID_2_">
        <use
           style="overflow:visible"
           xlink:href="#SVGID_1_"
           id="use63"
           x="0"
           y="0"
           width="100%"
           height="100%" />
      </clipPath>
      <path
         d="m 2.41,73.82 c 2.6,-5.08 7.92,-7.84 13.38,-8.59 2.94,-0.41 5.92,-0.43 8.85,0.07 2.13,0.36 4.36,0.94 6.36,1.76 2.66,1.1 5.17,2.51 7.55,4.1 2.01,1.34 3.95,2.77 5.94,4.13 2.45,1.68 5.01,3.28 7.83,4.26 3.52,1.23 7.68,2.19 11.08,0.13 0.42,-0.26 1.25,-0.79 1.6,-0.16 0.3,0.55 -0.22,1.08 -0.57,1.47 -0.54,0.59 -1.34,1.08 -2.03,1.47 -1.73,0.98 -3.7,1.43 -5.68,1.46 -1.55,0.02 -3.1,-0.04 -4.65,-0.18 -7.62,-0.72 -14.08,-4.23 -21.03,-7.08 -1.94,-0.8 -3.93,-1.51 -5.97,-2.02 -2.68,-0.67 -5.46,-0.96 -8.23,-0.7 -2.31,0.23 -4.75,0.78 -6.93,1.6 C 7.1,76.6 4.31,77.66 2.09,79.77 1.8,80.04 1.44,80.5 1.03,80.57 0.78,80.03 0.89,79.49 1.02,78.94 1.17,78.25 1.09,77.54 1.26,76.86 1.55,75.78 1.93,74.77 2.41,73.82 Z"
         style="fill:#ffffff"
         clip-path="url(#SVGID_2_)"
         id="path66" />
    </g>
    <path
       d="m 62.46,71.58 c -0.24,0.12 -0.48,0.22 -0.74,0.31 -1.61,0.51 -3.6,-0.3 -4.76,-1.93 -1.9,-2.67 -1.04,-6.23 1.38,-7.21 2.52,-1.01 5.66,0.48 6.43,3.72 0.59,2.43 -0.6,4.24 -2.31,5.11 z"
       style="fill:#ffffff"
       id="path70" />
    <path
       d="m 89.02,93.69 c -0.23,1.47 0.18,3.23 0.46,4.51 0.25,1.17 0.7,2.29 1.13,3.41 0.46,1.18 1.08,1.88 1.73,2.9 3.64,5.79 9.78,9.03 16.46,9.5 5.42,0.38 14.35,-0.59 18.3,-4.98 3.12,-3.47 -9.27,-5.23 -11.47,-5.91 -6.09,-1.86 -11.54,-4.43 -16.33,-8.68 -2.37,-2.11 -5.78,-5.06 -9.03,-2.89 -0.74,0.49 -1.11,1.26 -1.25,2.14 z"
       style="fill:#006ca2"
       id="path72" />
    <path
       d="m 22.53,95.54 c -2.07,0.93 -4.14,3.53 -5.32,4.54 -4.81,4.12 -11.19,5.81 -15.9,9.85 -2.52,2.17 0.77,3.7 2.71,4.35 8.84,2.98 19.13,-1.63 21.87,-10.78 0.56,-1.87 1.36,-6.33 -0.4,-7.74 -0.92,-0.73 -1.94,-0.68 -2.96,-0.22 z"
       style="fill:#006ca2"
       id="path74" />
  </g>
  <path
     sodipodi:type="star"
     style="fill:#ffff00;fill-rule:evenodd"
     id="path86"
     sodipodi:sides="5"
     sodipodi:cx="61.121107"
     sodipodi:cy="102.16378"
     sodipodi:r1="24.511499"
     sodipodi:r2="19.830219"
     sodipodi:arg1="0.33127408"
     sodipodi:arg2="0.95959261"
     inkscape:flatsided="true"
     inkscape:rounded="0"
     inkscape:randomized="0"
     d="M 84.299883,110.1361 60.701616,126.67169 37.683069,109.33818 47.055091,82.089895 75.865867,82.583034 Z"
     inkscape:transform-center-x="0.12962929"
     inkscape:transform-center-y="2.2170123" />
  <ellipse
     style="fill:#000000"
     id="path92"
     cx="60.530567"
     cy="115.22953"
     rx="5.4625144"
     ry="5.3886967" />
</svg>
